<svg xmlns="http://www.w3.org/2000/svg" version="1.1" xmlns:xlink="http://www.w3.org/1999/xlink" xmlns:svgjs="http://svgjs.com/svgjs" width="1440" height="580" preserveAspectRatio="none" viewBox="0 0 1440 580"><g mask="url(&quot;#SvgjsMask1020&quot;)" fill="none"><rect width="1440" height="580" x="0" y="0" fill="rgba(0, 0, 0, 1)"></rect><g mask="url(&quot;#SvgjsMask1021&quot;)"><path d="M935 289L901 323L867 323L833 323L799 323M1071 289L1037 323L1003 323L969 323L935 323M1173 289L1139 323L1105 357M1411 323L1377 289L1343 289L1309 289L1275 289M1479 289L1445 323L1411 323L1377 323L1343 323L1309 323L1275 323L1241 323L1207 323L1173 289L1139 289L1105 289L1071 289L1037 289L1003 289L969 289L935 289L901 289" stroke="#dd1133" stroke-width="5.67"></path><path d="M892.5 289 a8.5 8.5 0 1 0 17 0 a8.5 8.5 0 1 0 -17 0zM790.5 323 a8.5 8.5 0 1 0 17 0 a8.5 8.5 0 1 0 -17 0zM926.5 323 a8.5 8.5 0 1 0 17 0 a8.5 8.5 0 1 0 -17 0zM1096.5 357 a8.5 8.5 0 1 0 17 0 a8.5 8.5 0 1 0 -17 0zM1266.5 289 a8.5 8.5 0 1 0 17 0 a8.5 8.5 0 1 0 -17 0z" fill="#dd1133"></path><path d="M1071 255L1037 221M1241 255L1207 289M1003 255L969 221L935 221M1479 255L1445 255L1411 255L1377 255L1343 255L1309 255L1275 255L1241 255L1207 255L1173 255L1139 255L1105 255L1071 255L1037 255L1003 255L969 255L935 255L901 255" stroke="rgba(221, 17, 51, 1)" stroke-width="5.67"></path><path d="M892.5 255 a8.5 8.5 0 1 0 17 0 a8.5 8.5 0 1 0 -17 0zM1028.5 221 a8.5 8.5 0 1 0 17 0 a8.5 8.5 0 1 0 -17 0zM1198.5 289 a8.5 8.5 0 1 0 17 0 a8.5 8.5 0 1 0 -17 0zM926.5 221 a8.5 8.5 0 1 0 17 0 a8.5 8.5 0 1 0 -17 0z" fill="rgba(221, 17, 51, 1)"></path><path d="M1479 357L1445 357L1411 357L1377 357L1343 357L1309 357L1275 357L1241 357" stroke="#dd1133" stroke-width="5.67"></path><path d="M1232.5 357 a8.5 8.5 0 1 0 17 0 a8.5 8.5 0 1 0 -17 0z" fill="#dd1133"></path><path d="M901 187L867 187L833 187L799 187M1173 221L1139 187L1105 187L1071 153M969 187L935 153M1037 187L1003 153M867 221L833 255L799 255M1479 221L1445 221L1411 221L1377 221L1343 221L1309 221L1275 221L1241 221L1207 221L1173 221L1139 221L1105 221L1071 187L1037 187L1003 187L969 187L935 187L901 187L867 221L833 221" stroke="#dd1133" stroke-width="5.67"></path><path d="M824.5 221 a8.5 8.5 0 1 0 17 0 a8.5 8.5 0 1 0 -17 0zM790.5 187 a8.5 8.5 0 1 0 17 0 a8.5 8.5 0 1 0 -17 0zM1062.5 153 a8.5 8.5 0 1 0 17 0 a8.5 8.5 0 1 0 -17 0zM926.5 153 a8.5 8.5 0 1 0 17 0 a8.5 8.5 0 1 0 -17 0zM994.5 153 a8.5 8.5 0 1 0 17 0 a8.5 8.5 0 1 0 -17 0zM790.5 255 a8.5 8.5 0 1 0 17 0 a8.5 8.5 0 1 0 -17 0z" fill="#dd1133"></path><path d="M1207 391L1173 357M1071 391L1037 357L1003 357L969 357L935 357M1037 391L1003 391L969 391M1479 391L1445 391L1411 391L1377 391L1343 391L1309 391L1275 391L1241 391L1207 391L1173 391L1139 391L1105 391L1071 391L1037 391L1003 425" stroke="#dd1133" stroke-width="5.67"></path><path d="M994.5 425 a8.5 8.5 0 1 0 17 0 a8.5 8.5 0 1 0 -17 0zM1164.5 357 a8.5 8.5 0 1 0 17 0 a8.5 8.5 0 1 0 -17 0zM926.5 357 a8.5 8.5 0 1 0 17 0 a8.5 8.5 0 1 0 -17 0zM960.5 391 a8.5 8.5 0 1 0 17 0 a8.5 8.5 0 1 0 -17 0z" fill="#dd1133"></path><path d="M1479 187L1445 187L1411 187L1377 187L1343 187L1309 187L1275 187L1241 187" stroke="rgba(221, 17, 51, 1)" stroke-width="5.67"></path><path d="M1232.5 187 a8.5 8.5 0 1 0 17 0 a8.5 8.5 0 1 0 -17 0z" fill="rgba(221, 17, 51, 1)"></path><path d="M1173 425L1139 459M1411 425L1377 459L1343 459M1275 425L1241 459L1207 459M1479 425L1445 425L1411 425L1377 425L1343 425L1309 425L1275 425L1241 425L1207 425L1173 425L1139 425L1105 425L1071 425L1037 425" stroke="#dd1133" stroke-width="5.67"></path><path d="M1028.5 425 a8.5 8.5 0 1 0 17 0 a8.5 8.5 0 1 0 -17 0zM1130.5 459 a8.5 8.5 0 1 0 17 0 a8.5 8.5 0 1 0 -17 0zM1334.5 459 a8.5 8.5 0 1 0 17 0 a8.5 8.5 0 1 0 -17 0zM1198.5 459 a8.5 8.5 0 1 0 17 0 a8.5 8.5 0 1 0 -17 0z" fill="#dd1133"></path><path d="M1343 153L1309 119L1275 119L1241 119M1411 153L1377 119L1343 119L1309 85L1275 85M1445 153L1411 119M1479 153L1445 153L1411 153L1377 153L1343 153L1309 153L1275 153L1241 153L1207 153L1173 153L1139 119L1105 119" stroke="rgba(221, 17, 51, 1)" stroke-width="5.67"></path><path d="M1096.5 119 a8.5 8.5 0 1 0 17 0 a8.5 8.5 0 1 0 -17 0zM1232.5 119 a8.5 8.5 0 1 0 17 0 a8.5 8.5 0 1 0 -17 0zM1266.5 85 a8.5 8.5 0 1 0 17 0 a8.5 8.5 0 1 0 -17 0zM1402.5 119 a8.5 8.5 0 1 0 17 0 a8.5 8.5 0 1 0 -17 0z" fill="rgba(221, 17, 51, 1)"></path></g></g><defs><mask id="SvgjsMask1020"><rect width="1440" height="580" fill="#ffffff"></rect></mask><mask id="SvgjsMask1021"><rect width="1440" height="580" fill="white"></rect><path d="M896.75 289 a4.25 4.25 0 1 0 8.5 0 a4.25 4.25 0 1 0 -8.5 0zM794.75 323 a4.25 4.25 0 1 0 8.5 0 a4.25 4.25 0 1 0 -8.5 0zM930.75 323 a4.25 4.25 0 1 0 8.5 0 a4.25 4.25 0 1 0 -8.5 0zM1100.75 357 a4.25 4.25 0 1 0 8.5 0 a4.25 4.25 0 1 0 -8.5 0zM1270.75 289 a4.25 4.25 0 1 0 8.5 0 a4.25 4.25 0 1 0 -8.5 0z" fill="black"></path><path d="M896.75 255 a4.25 4.25 0 1 0 8.5 0 a4.25 4.25 0 1 0 -8.5 0zM1032.75 221 a4.25 4.25 0 1 0 8.5 0 a4.25 4.25 0 1 0 -8.5 0zM1202.75 289 a4.25 4.25 0 1 0 8.5 0 a4.25 4.25 0 1 0 -8.5 0zM930.75 221 a4.25 4.25 0 1 0 8.5 0 a4.25 4.25 0 1 0 -8.5 0z" fill="black"></path><path d="M1236.75 357 a4.25 4.25 0 1 0 8.5 0 a4.25 4.25 0 1 0 -8.5 0z" fill="black"></path><path d="M828.75 221 a4.25 4.25 0 1 0 8.5 0 a4.25 4.25 0 1 0 -8.5 0zM794.75 187 a4.25 4.25 0 1 0 8.5 0 a4.25 4.25 0 1 0 -8.5 0zM1066.75 153 a4.25 4.25 0 1 0 8.5 0 a4.25 4.25 0 1 0 -8.5 0zM930.75 153 a4.25 4.25 0 1 0 8.5 0 a4.25 4.25 0 1 0 -8.5 0zM998.75 153 a4.25 4.25 0 1 0 8.5 0 a4.25 4.25 0 1 0 -8.5 0zM794.75 255 a4.25 4.25 0 1 0 8.5 0 a4.25 4.25 0 1 0 -8.5 0z" fill="black"></path><path d="M998.75 425 a4.25 4.25 0 1 0 8.5 0 a4.25 4.25 0 1 0 -8.5 0zM1168.75 357 a4.25 4.25 0 1 0 8.5 0 a4.25 4.25 0 1 0 -8.5 0zM930.75 357 a4.25 4.25 0 1 0 8.5 0 a4.25 4.25 0 1 0 -8.5 0zM964.75 391 a4.25 4.25 0 1 0 8.5 0 a4.25 4.25 0 1 0 -8.5 0z" fill="black"></path><path d="M1236.75 187 a4.25 4.25 0 1 0 8.5 0 a4.25 4.25 0 1 0 -8.5 0z" fill="black"></path><path d="M1032.75 425 a4.25 4.25 0 1 0 8.5 0 a4.25 4.25 0 1 0 -8.5 0zM1134.75 459 a4.25 4.25 0 1 0 8.5 0 a4.25 4.25 0 1 0 -8.5 0zM1338.75 459 a4.25 4.25 0 1 0 8.5 0 a4.25 4.25 0 1 0 -8.5 0zM1202.75 459 a4.25 4.25 0 1 0 8.5 0 a4.25 4.25 0 1 0 -8.5 0z" fill="black"></path><path d="M1100.75 119 a4.25 4.25 0 1 0 8.5 0 a4.25 4.25 0 1 0 -8.5 0zM1236.75 119 a4.25 4.25 0 1 0 8.5 0 a4.25 4.25 0 1 0 -8.5 0zM1270.75 85 a4.25 4.25 0 1 0 8.5 0 a4.25 4.25 0 1 0 -8.5 0zM1406.75 119 a4.25 4.25 0 1 0 8.5 0 a4.25 4.25 0 1 0 -8.5 0z" fill="black"></path></mask></defs></svg>