<svg xmlns="http://www.w3.org/2000/svg" version="1.1" xmlns:xlink="http://www.w3.org/1999/xlink" xmlns:svgjs="http://svgjs.com/svgjs" width="1440" height="700" preserveAspectRatio="none" viewBox="0 0 1440 700"><g mask="url(&quot;#SvgjsMask1004&quot;)" fill="none"><rect width="1440" height="700" x="0" y="0" fill="rgba(0, 0, 0, 1)"></rect><g mask="url(&quot;#SvgjsMask1005&quot;)"><path d="M1411 357L1377 323M1343 357L1309 323L1275 323L1241 323L1207 323M1479 357L1445 357L1411 357L1377 357L1343 357L1309 357L1275 357L1241 357L1207 357L1173 357" stroke="rgba(221, 17, 51, 1)" stroke-width="5.67"></path><path d="M1164.5 357 a8.5 8.5 0 1 0 17 0 a8.5 8.5 0 1 0 -17 0zM1368.5 323 a8.5 8.5 0 1 0 17 0 a8.5 8.5 0 1 0 -17 0zM1198.5 323 a8.5 8.5 0 1 0 17 0 a8.5 8.5 0 1 0 -17 0z" fill="rgba(221, 17, 51, 1)"></path><path d="M1309 255L1275 289L1241 289L1207 289M901 255L867 221L833 221L799 221M1003 255L969 221M1343 289L1309 289M1377 289L1343 255M1479 323L1445 289L1411 289L1377 289L1343 289L1309 255L1275 255L1241 255L1207 255L1173 255L1139 255L1105 255L1071 255L1037 255L1003 255L969 255L935 255L901 255L867 255L833 255" stroke="#dd1133" stroke-width="5.67"></path><path d="M824.5 255 a8.5 8.5 0 1 0 17 0 a8.5 8.5 0 1 0 -17 0zM1198.5 289 a8.5 8.5 0 1 0 17 0 a8.5 8.5 0 1 0 -17 0zM790.5 221 a8.5 8.5 0 1 0 17 0 a8.5 8.5 0 1 0 -17 0zM960.5 221 a8.5 8.5 0 1 0 17 0 a8.5 8.5 0 1 0 -17 0zM1300.5 289 a8.5 8.5 0 1 0 17 0 a8.5 8.5 0 1 0 -17 0zM1334.5 255 a8.5 8.5 0 1 0 17 0 a8.5 8.5 0 1 0 -17 0z" fill="#dd1133"></path><path d="M1241 391L1207 425L1173 425M1139 391L1105 425L1071 459L1037 459M1071 425L1037 391M1479 391L1445 391L1411 391L1377 391L1343 391L1309 391L1275 391L1241 391L1207 391L1173 391L1139 391L1105 391L1071 425L1037 425" stroke="rgba(221, 17, 51, 1)" stroke-width="5.67"></path><path d="M1028.5 425 a8.5 8.5 0 1 0 17 0 a8.5 8.5 0 1 0 -17 0zM1164.5 425 a8.5 8.5 0 1 0 17 0 a8.5 8.5 0 1 0 -17 0zM1028.5 459 a8.5 8.5 0 1 0 17 0 a8.5 8.5 0 1 0 -17 0zM1028.5 391 a8.5 8.5 0 1 0 17 0 a8.5 8.5 0 1 0 -17 0z" fill="rgba(221, 17, 51, 1)"></path><path d="M1207 459L1173 493M1309 425L1275 425L1241 425M1241 459L1207 493L1173 527L1139 527L1105 527M1479 425L1445 425L1411 425L1377 425L1343 425L1309 425L1275 459L1241 459L1207 459L1173 459" stroke="rgba(221, 17, 51, 1)" stroke-width="5.67"></path><path d="M1164.5 459 a8.5 8.5 0 1 0 17 0 a8.5 8.5 0 1 0 -17 0zM1164.5 493 a8.5 8.5 0 1 0 17 0 a8.5 8.5 0 1 0 -17 0zM1232.5 425 a8.5 8.5 0 1 0 17 0 a8.5 8.5 0 1 0 -17 0zM1096.5 527 a8.5 8.5 0 1 0 17 0 a8.5 8.5 0 1 0 -17 0z" fill="rgba(221, 17, 51, 1)"></path><path d="M1411 255L1377 255M1479 255L1445 255L1411 255L1377 221L1343 221L1309 221L1275 221L1241 221L1207 221L1173 221L1139 221L1105 221" stroke="rgba(221, 17, 51, 1)" stroke-width="5.67"></path><path d="M1096.5 221 a8.5 8.5 0 1 0 17 0 a8.5 8.5 0 1 0 -17 0zM1368.5 255 a8.5 8.5 0 1 0 17 0 a8.5 8.5 0 1 0 -17 0z" fill="rgba(221, 17, 51, 1)"></path><path d="M1343 459L1309 493L1275 493M1377 459L1343 493L1309 527L1275 527M1411 459L1377 493L1343 527M1479 459L1445 459L1411 459L1377 459L1343 459L1309 459" stroke="rgba(221, 17, 51, 1)" stroke-width="5.67"></path><path d="M1300.5 459 a8.5 8.5 0 1 0 17 0 a8.5 8.5 0 1 0 -17 0zM1266.5 493 a8.5 8.5 0 1 0 17 0 a8.5 8.5 0 1 0 -17 0zM1266.5 527 a8.5 8.5 0 1 0 17 0 a8.5 8.5 0 1 0 -17 0zM1334.5 527 a8.5 8.5 0 1 0 17 0 a8.5 8.5 0 1 0 -17 0z" fill="rgba(221, 17, 51, 1)"></path><path d="M1037 187L1003 221M1105 187L1071 153L1037 153M867 187L833 153L799 153M935 187L901 221M1139 187L1105 153M1479 221L1445 221L1411 221L1377 187L1343 187L1309 187L1275 187L1241 187L1207 187L1173 187L1139 187L1105 187L1071 187L1037 187L1003 187L969 187L935 187L901 187L867 187L833 187" stroke="#dd1133" stroke-width="5.67"></path><path d="M824.5 187 a8.5 8.5 0 1 0 17 0 a8.5 8.5 0 1 0 -17 0zM994.5 221 a8.5 8.5 0 1 0 17 0 a8.5 8.5 0 1 0 -17 0zM1028.5 153 a8.5 8.5 0 1 0 17 0 a8.5 8.5 0 1 0 -17 0zM790.5 153 a8.5 8.5 0 1 0 17 0 a8.5 8.5 0 1 0 -17 0zM892.5 221 a8.5 8.5 0 1 0 17 0 a8.5 8.5 0 1 0 -17 0zM1096.5 153 a8.5 8.5 0 1 0 17 0 a8.5 8.5 0 1 0 -17 0z" fill="#dd1133"></path><path d="M1275 153L1241 119L1207 119L1173 119M1309 153L1275 119L1241 85L1207 85M1343 153L1309 119M1445 187L1411 153L1377 119L1343 119M1479 187L1445 187L1411 187L1377 153L1343 153L1309 153L1275 153L1241 153L1207 153L1173 153L1139 119L1105 119L1071 119L1037 119L1003 153L969 153L935 153L901 153" stroke="#dd1133" stroke-width="5.67"></path><path d="M892.5 153 a8.5 8.5 0 1 0 17 0 a8.5 8.5 0 1 0 -17 0zM1164.5 119 a8.5 8.5 0 1 0 17 0 a8.5 8.5 0 1 0 -17 0zM1198.5 85 a8.5 8.5 0 1 0 17 0 a8.5 8.5 0 1 0 -17 0zM1300.5 119 a8.5 8.5 0 1 0 17 0 a8.5 8.5 0 1 0 -17 0zM1334.5 119 a8.5 8.5 0 1 0 17 0 a8.5 8.5 0 1 0 -17 0z" fill="#dd1133"></path></g></g><defs><mask id="SvgjsMask1004"><rect width="1440" height="700" fill="#ffffff"></rect></mask><mask id="SvgjsMask1005"><rect width="1440" height="700" fill="white"></rect><path d="M1168.75 357 a4.25 4.25 0 1 0 8.5 0 a4.25 4.25 0 1 0 -8.5 0zM1372.75 323 a4.25 4.25 0 1 0 8.5 0 a4.25 4.25 0 1 0 -8.5 0zM1202.75 323 a4.25 4.25 0 1 0 8.5 0 a4.25 4.25 0 1 0 -8.5 0z" fill="black"></path><path d="M828.75 255 a4.25 4.25 0 1 0 8.5 0 a4.25 4.25 0 1 0 -8.5 0zM1202.75 289 a4.25 4.25 0 1 0 8.5 0 a4.25 4.25 0 1 0 -8.5 0zM794.75 221 a4.25 4.25 0 1 0 8.5 0 a4.25 4.25 0 1 0 -8.5 0zM964.75 221 a4.25 4.25 0 1 0 8.5 0 a4.25 4.25 0 1 0 -8.5 0zM1304.75 289 a4.25 4.25 0 1 0 8.5 0 a4.25 4.25 0 1 0 -8.5 0zM1338.75 255 a4.25 4.25 0 1 0 8.5 0 a4.25 4.25 0 1 0 -8.5 0z" fill="black"></path><path d="M1032.75 425 a4.25 4.25 0 1 0 8.5 0 a4.25 4.25 0 1 0 -8.5 0zM1168.75 425 a4.25 4.25 0 1 0 8.5 0 a4.25 4.25 0 1 0 -8.5 0zM1032.75 459 a4.25 4.25 0 1 0 8.5 0 a4.25 4.25 0 1 0 -8.5 0zM1032.75 391 a4.25 4.25 0 1 0 8.5 0 a4.25 4.25 0 1 0 -8.5 0z" fill="black"></path><path d="M1168.75 459 a4.25 4.25 0 1 0 8.5 0 a4.25 4.25 0 1 0 -8.5 0zM1168.75 493 a4.25 4.25 0 1 0 8.5 0 a4.25 4.25 0 1 0 -8.5 0zM1236.75 425 a4.25 4.25 0 1 0 8.5 0 a4.25 4.25 0 1 0 -8.5 0zM1100.75 527 a4.25 4.25 0 1 0 8.5 0 a4.25 4.25 0 1 0 -8.5 0z" fill="black"></path><path d="M1100.75 221 a4.25 4.25 0 1 0 8.5 0 a4.25 4.25 0 1 0 -8.5 0zM1372.75 255 a4.25 4.25 0 1 0 8.5 0 a4.25 4.25 0 1 0 -8.5 0z" fill="black"></path><path d="M1304.75 459 a4.25 4.25 0 1 0 8.5 0 a4.25 4.25 0 1 0 -8.5 0zM1270.75 493 a4.25 4.25 0 1 0 8.5 0 a4.25 4.25 0 1 0 -8.5 0zM1270.75 527 a4.25 4.25 0 1 0 8.5 0 a4.25 4.25 0 1 0 -8.5 0zM1338.75 527 a4.25 4.25 0 1 0 8.5 0 a4.25 4.25 0 1 0 -8.5 0z" fill="black"></path><path d="M828.75 187 a4.25 4.25 0 1 0 8.5 0 a4.25 4.25 0 1 0 -8.5 0zM998.75 221 a4.25 4.25 0 1 0 8.5 0 a4.25 4.25 0 1 0 -8.5 0zM1032.75 153 a4.25 4.25 0 1 0 8.5 0 a4.25 4.25 0 1 0 -8.5 0zM794.75 153 a4.25 4.25 0 1 0 8.5 0 a4.25 4.25 0 1 0 -8.5 0zM896.75 221 a4.25 4.25 0 1 0 8.5 0 a4.25 4.25 0 1 0 -8.5 0zM1100.75 153 a4.25 4.25 0 1 0 8.5 0 a4.25 4.25 0 1 0 -8.5 0z" fill="black"></path><path d="M896.75 153 a4.25 4.25 0 1 0 8.5 0 a4.25 4.25 0 1 0 -8.5 0zM1168.75 119 a4.25 4.25 0 1 0 8.5 0 a4.25 4.25 0 1 0 -8.5 0zM1202.75 85 a4.25 4.25 0 1 0 8.5 0 a4.25 4.25 0 1 0 -8.5 0zM1304.75 119 a4.25 4.25 0 1 0 8.5 0 a4.25 4.25 0 1 0 -8.5 0zM1338.75 119 a4.25 4.25 0 1 0 8.5 0 a4.25 4.25 0 1 0 -8.5 0z" fill="black"></path></mask></defs></svg>